<?xml version="1.0" encoding="UTF-8" standalone="no"?>
<svg
   xmlns:dc="http://purl.org/dc/elements/1.1/"
   xmlns:cc="http://creativecommons.org/ns#"
   xmlns:rdf="http://www.w3.org/1999/02/22-rdf-syntax-ns#"
   xmlns:svg="http://www.w3.org/2000/svg"
   xmlns="http://www.w3.org/2000/svg"
   viewBox="0 0 114.52 41.573334"
   height="41.573334"
   width="114.52"
   xml:space="preserve"
   id="svg2"
   version="1.1"><metadata
     id="metadata8"><rdf:RDF><cc:Work
         rdf:about=""><dc:format>image/svg+xml</dc:format><dc:type
           rdf:resource="http://purl.org/dc/dcmitype/StillImage" /></cc:Work></rdf:RDF></metadata><defs
     id="defs6" /><g
     transform="matrix(1.3333333,0,0,-1.3333333,0,41.573333)"
     id="g10"><g
       transform="scale(0.1)"
       id="g12"><path
         id="path14"
         style="fill:#ffffff;fill-opacity:1;fill-rule:nonzero;stroke:none"
         d="m 202.465,169.926 h 62.883 c 0,0 2.488,9.453 -8.711,23.625 -22.121,22.859 -46.969,7.699 -46.969,7.699 -12.184,-6.461 -27.832,-33.309 -18.652,-71.836 11.449,-38.5351 55.437,-46.4648 82.769,-37.5195 18.09,5.918 28.52,18.9645 33.539,27.1485 1.614,6.621 2.766,13.242 3.492,19.824 H 202.465 v 31.059 z M 71.3867,133.984 c -11.0703,0 -20.039,8.965 -20.039,20.043 0,11.071 8.9687,20.039 20.039,20.039 11.0781,0 20.0391,-8.968 20.0391,-20.039 0,-11.078 -8.961,-20.043 -20.0391,-20.043 z M 194.238,306.988 C 110.797,328.148 25.9844,277.672 4.82422,194.23 -16.3438,110.781 34.1367,25.9961 117.578,4.82422 176.863,-10.2148 236.816,10.9375 274.164,54.3555 c -16.422,-3.9258 -35.43,-4.2188 -56.289,2.9687 -69.855,24.1211 -82.777,88.7498 -65.371,133.9848 17.383,45.238 78.281,66.363 120.531,36.039 41.59,-29.828 37.922,-86.567 37.789,-88.383 8.414,76.074 -40.289,148.652 -116.586,168.023 z M 808.848,114.277 C 804.375,102.383 791.973,95.4297 777.102,93.9648 v -0.0195 c -2.961,-0.4883 -6.438,-0.9765 -9.883,-0.4883 -9.922,0 -18.352,4.961 -21.828,12.402 -3.973,7.442 -1.496,14.883 0.996,19.356 5.949,10.41 16.355,12.402 30.761,15.371 v 0 c 4.446,0.488 9.383,1.484 14.825,2.969 10.918,2.48 13.398,4.472 18.855,8.441 0,-3.969 0.5,-32.25 -1.98,-37.719 z m 44.636,-6.445 v 53.578 c -0.488,13.887 -0.488,27.781 -3.464,40.68 -2.989,12.902 -14.383,34.23 -51.102,38.703 -6.938,0.488 -14.367,0.488 -21.801,0.488 h -0.015 c -12.407,-0.488 -25.293,-2.472 -35.707,-6.441 -21.825,-8.93 -32.743,-30.262 -32.743,-52.59 h 39.688 c -0.996,11.406 7.441,21.836 15.371,24.813 3.484,1.476 8.437,2.468 13.406,2.468 9.914,0.489 19.824,-1.98 26.77,-8.433 4.472,-4.457 5.957,-10.41 4.472,-16.86 -2.492,-10.418 -13.894,-13.89 -31.257,-16.383 v 0 c -5.957,-0.984 -12.883,-1.476 -20.305,-2.464 -20.828,-2.481 -50.606,-12.899 -57.539,-43.145 -2.481,-11.914 -0.488,-33.7499 17.851,-48.1249 12.403,-9.4336 29.778,-13.9063 43.164,-13.3984 5.957,0 11.907,0.4882 16.875,1.4843 v 0.0196 c 13.868,2.9687 24.766,9.414 35.165,17.832 0.5,-2.4805 2.98,-11.8945 4.96,-14.375 h 41.672 c -6.433,12.8906 -5.461,31.7383 -5.461,42.1484 z M 486.895,216.969 c -17.364,19.351 -44.153,27.793 -71.43,23.824 -24.801,-3.973 -42.656,-17.863 -55.059,-37.703 -6.453,-11.41 -10.91,-24.309 -12.902,-36.711 -3.969,-30.266 4.465,-80.8517 57.551,-100.6954 24.789,-9.4336 56.05,-5.957 79.855,11.4062 13.391,9.9219 26.801,32.2462 27.778,46.1332 h -44.141 c -1.496,-5.957 -4.961,-13.887 -12.902,-19.844 -17.864,-12.8907 -38.2,-4.4727 -47.129,1.992 -13.387,9.922 -17.852,26.289 -18.348,49.602 0,12.394 3.469,32.234 13.891,41.668 11.406,9.429 25.296,11.898 38.683,7.937 14.399,-4.469 25.305,-20.34 24.309,-34.719 h -62.496 v -31.265 h 108.133 c 0.996,11.418 -0.977,22.324 -2.969,32.746 -3.469,15.371 -12.895,34.23 -22.824,45.629 z M 614.883,170.84 c -13.399,2.48 -28.77,2.98 -36.699,11.898 -3.477,3.973 -3.477,10.918 -1.496,14.891 5.46,10.91 18.859,14.387 31.75,13.402 11.406,0 21.828,-5.961 26.289,-15.883 1.992,-3.972 2.492,-8.437 2.976,-12.898 h 36.699 c 0.5,14.391 -5.449,29.27 -14.375,38.699 -11.414,11.899 -38.203,24.301 -71.422,19.34 -17.875,-2.473 -41.679,-12.902 -49.628,-36.203 -6.946,-21.836 0,-41.668 13.394,-52.09 16.875,-12.914 48.625,-16.371 61.524,-19.359 14.882,-2.969 22.316,-4.961 24.796,-13.379 1.497,-5.469 0.997,-11.914 -2.48,-16.387 -9.426,-12.3827 -28.77,-13.3788 -44.141,-8.9062 -12.898,3.9454 -18.359,14.3752 -20.84,28.2812 h -38.691 c 0,-12.91 3.965,-21.855 10.422,-32.2655 8.426,-13.3985 23.309,-24.2969 45.137,-27.7735 23.804,-3.9843 48.113,-0.9961 62.507,6.9336 8.426,4.9805 14.883,11.4063 20.34,18.3594 7.934,9.9219 14.883,34.746 2.473,56.563 -10.906,18.847 -35.715,22.808 -58.535,26.777 v 0" /></g></g></svg>